Input #0, mp3, from 'projects/0622/素材/音频/文案3-音频.mp3':
  Metadata:
    AIGC            : {"Label":"1","ContentProducer":"MiniMax","ProduceID":"0687f404a247d75489605e6fee3136b3","ReservedCode1":"{\"SecurityData\":{\"Type\":\"TC260PG\",\"Version\":1,\"PubSD\":[{\"Type\":\"DS\",\"AlgID\":\"1.2.156.10197.1.501\",\"TBSData\":{\"Type\":\"LabelMataD
    encoder         : Lavf59.27.100
  Duration: 00:00:28.15, start: 0.016531, bitrate: 128 kb/s
  Stream #0:0: Audio: mp3 (mp3float), 32000 Hz, mono, fltp, 128 kb/s, start 0.016531
Stream mapping:
  Stream #0:0 -> #0:0 (mp3 (mp3float) -> pcm_s16le (native))
Press [q] to stop, [?] for help
Output #0, null, to 'pipe:':
  Metadata:
    AIGC            : {"Label":"1","ContentProducer":"MiniMax","ProduceID":"0687f404a247d75489605e6fee3136b3","ReservedCode1":"{\"SecurityData\":{\"Type\":\"TC260PG\",\"Version\":1,\"PubSD\":[{\"Type\":\"DS\",\"AlgID\":\"1.2.156.10197.1.501\",\"TBSData\":{\"Type\":\"LabelMataD
    encoder         : Lavf62.3.100
  Stream #0:0: Audio: pcm_s16le, 32000 Hz, mono, s16, 512 kb/s
    Metadata:
      encoder         : Lavc62.11.100 pcm_s16le
[silencedetect @ 0x9cb0903c0] silence_start: 0
[silencedetect @ 0x9cb0903c0] silence_end: 0.236437 | silence_duration: 0.236437
[silencedetect @ 0x9cb0903c0] silence_start: 1.844906
[silencedetect @ 0x9cb0903c0] silence_end: 2.132531 | silence_duration: 0.287625
[silencedetect @ 0x9cb0903c0] silence_start: 2.791625
[silencedetect @ 0x9cb0903c0] silence_end: 3.098313 | silence_duration: 0.306688
[silencedetect @ 0x9cb0903c0] silence_start: 4.713438
[silencedetect @ 0x9cb0903c0] silence_end: 5.004563 | silence_duration: 0.291125
[silencedetect @ 0x9cb0903c0] silence_start: 6.584625
[silencedetect @ 0x9cb0903c0] silence_end: 6.982687 | silence_duration: 0.398062
[silencedetect @ 0x9cb0903c0] silence_start: 8.249562
[silencedetect @ 0x9cb0903c0] silence_end: 8.499813 | silence_duration: 0.25025
[silencedetect @ 0x9cb0903c0] silence_start: 9.366344
[silencedetect @ 0x9cb0903c0] silence_end: 9.614406 | silence_duration: 0.248062
[silencedetect @ 0x9cb0903c0] silence_start: 10.341437
[silencedetect @ 0x9cb0903c0] silence_end: 10.658969 | silence_duration: 0.317531
[silencedetect @ 0x9cb0903c0] silence_start: 12.073469
[silencedetect @ 0x9cb0903c0] silence_end: 12.593406 | silence_duration: 0.519938
[silencedetect @ 0x9cb0903c0] silence_start: 14.203938
[silencedetect @ 0x9cb0903c0] silence_end: 14.65 | silence_duration: 0.446063
[silencedetect @ 0x9cb0903c0] silence_start: 15.865188
[silencedetect @ 0x9cb0903c0] silence_end: 16.187719 | silence_duration: 0.322531
[silencedetect @ 0x9cb0903c0] silence_start: 18.318844
[silencedetect @ 0x9cb0903c0] silence_end: 18.663375 | silence_duration: 0.344531
[silencedetect @ 0x9cb0903c0] silence_start: 20.687812
[silencedetect @ 0x9cb0903c0] silence_end: 20.924781 | silence_duration: 0.236969
[silencedetect @ 0x9cb0903c0] silence_start: 22.462406
[silencedetect @ 0x9cb0903c0] silence_end: 22.788344 | silence_duration: 0.325937
[silencedetect @ 0x9cb0903c0] silence_start: 25.218656
[silencedetect @ 0x9cb0903c0] silence_end: 25.655156 | silence_duration: 0.4365
[out#0/null @ 0x9cb030cc0] video:0KiB audio:1758KiB subtitle:0KiB other streams:0KiB global headers:0KiB muxing overhead: unknown
size=N/A time=00:00:28.13 bitrate=N/A speed=1.47e+03x elapsed=0:00:00.01    
